HIERARCHY
ROOT Hips
{
	OFFSET 0.00000 0.00000 0.00000
	CHANNELS 6 Xposition Yposition Zposition Zrotation Yrotation Xrotation 
	JOINT LHipJoint
	{
		OFFSET 0 0 0
		CHANNELS 3 Zrotation Yrotation Xrotation
		JOINT LeftUpLeg
		{
			OFFSET 3.13874 -1.57224 1.49786
			CHANNELS 3 Zrotation Yrotation Xrotation
			JOINT LeftLeg
			{
				OFFSET 2.10955 -5.79594 0.00000
				CHANNELS 3 Zrotation Yrotation Xrotation
				JOINT LeftFoot
				{
					OFFSET 2.41843 -6.64458 0.00000
					CHANNELS 3 Zrotation Yrotation Xrotation
					JOINT LeftToeBase
					{
						OFFSET 0.04713 -0.12948 1.66229
						CHANNELS 3 Zrotation Yrotation Xrotation
						End Site
						{
							OFFSET 0.00000 -0.00000 0.85167
						}
					}
				}
			}
		}
	}
	JOINT RHipJoint
	{
		OFFSET 0 0 0
		CHANNELS 3 Zrotation Yrotation Xrotation
		JOINT RightUpLeg
		{
			OFFSET -3.13988 -1.57224 1.49786
			CHANNELS 3 Zrotation Yrotation Xrotation
			JOINT RightLeg
			{
				OFFSET -2.15006 -5.90725 0.00000
				CHANNELS 3 Zrotation Yrotation Xrotation
				JOINT RightFoot
				{
					OFFSET -2.34496 -6.44273 0.00000
					CHANNELS 3 Zrotation Yrotation Xrotation
					JOINT RightToeBase
					{
						OFFSET -0.08699 -0.23900 1.55223
						CHANNELS 3 Zrotation Yrotation Xrotation
						End Site
						{
							OFFSET -0.00000 -0.00000 0.80281
						}
					}
				}
			}
		}
	}
	JOINT LowerBack
	{
		OFFSET 0 0 0
		CHANNELS 3 Zrotation Yrotation Xrotation
		JOINT Spine
		{
			OFFSET 0.01292 1.96517 -0.16495
			CHANNELS 3 Zrotation Yrotation Xrotation
			JOINT Spine1
			{
				OFFSET 0.02122 1.88666 0.19706
				CHANNELS 3 Zrotation Yrotation Xrotation
				JOINT Neck
				{
					OFFSET 0 0 0
					CHANNELS 3 Zrotation Yrotation Xrotation
					JOINT Neck1
					{
						OFFSET -0.01683 1.81591 0.07903
						CHANNELS 3 Zrotation Yrotation Xrotation
						JOINT Head
						{
							OFFSET 0.00815 1.74013 -0.47700
							CHANNELS 3 Zrotation Yrotation Xrotation
							End Site
							{
								OFFSET -0.00204 1.83225 -0.16933
							}
						}
					}
				}
				JOINT LeftShoulder
				{
					OFFSET 0 0 0
					CHANNELS 3 Zrotation Yrotation Xrotation
					JOINT LeftArm
					{
						OFFSET 3.38482 1.41533 0.19802
						CHANNELS 3 Zrotation Yrotation Xrotation
						JOINT LeftForeArm
						{
							OFFSET 4.32712 -0.00000 0.00000
							CHANNELS 3 Zrotation Yrotation Xrotation
							JOINT LeftHand
							{
								OFFSET 3.28587 -0.00000 -0.00000
								CHANNELS 3 Zrotation Yrotation Xrotation
								JOINT LeftFingerBase
								{
									OFFSET 0 0 0
									CHANNELS 3 Zrotation Yrotation Xrotation
									JOINT LeftHandIndex1
									{
										OFFSET 0.43316 -0.00000 -0.00000
										CHANNELS 3 Zrotation Yrotation Xrotation
										End Site
										{
											OFFSET 0.34922 -0.00000 -0.00000
										}
									}
								}
								JOINT LThumb
								{
									OFFSET 0 0 0
									CHANNELS 3 Zrotation Yrotation Xrotation
									End Site
									{
										OFFSET 0.35456 -0.00000 0.35456
									}
								}
							}
						}
					}
				}
				JOINT RightShoulder
				{
					OFFSET 0 0 0
					CHANNELS 3 Zrotation Yrotation Xrotation
					JOINT RightArm
					{
						OFFSET -3.09725 1.62858 -0.14144
						CHANNELS 3 Zrotation Yrotation Xrotation
						JOINT RightForeArm
						{
							OFFSET -4.29104 -0.00000 0.00000
							CHANNELS 3 Zrotation Yrotation Xrotation
							JOINT RightHand
							{
								OFFSET -3.22720 -0.00000 -0.00000
								CHANNELS 3 Zrotation Yrotation Xrotation
								JOINT RightFingerBase
								{
									OFFSET 0 0 0
									CHANNELS 3 Zrotation Yrotation Xrotation
									JOINT RightHandIndex1
									{
										OFFSET -0.54362 -0.00000 -0.00000
										CHANNELS 3 Zrotation Yrotation Xrotation
										End Site
										{
											OFFSET -0.43828 -0.00000 -0.00000
										}
									}
								}
								JOINT RThumb
								{
									OFFSET 0 0 0
									CHANNELS 3 Zrotation Yrotation Xrotation
									End Site
									{
										OFFSET -0.44497 -0.00000 0.44497
									}
								}
							}
						}
					}
				}
			}
		}
	}
}
MOTION
Frames: 13
Frame Time: 0.0363636
0.00 0.00 0.00 0 0 0 0 0 0 -21 0 0 0 0 0 0 0 0 0 0 0 0 0 0 21 0 0 0 0 0 0 0 0 0 0 0 0 0 0 0 0 0 0 0 0 0 0 -16 0 0 21 0 0 11 0 0 0 -8 0 0 0 0 0 0 0 0 0 0 0 0 0 0 0 0 0 0 0 0 8 0 0 0 0 0 0 0 0 0 0 0 0 0 0 0 0 0
0.00 0.00 0.00 -174.7930 1.0567 -174.3110 0.0000 0.0000 0.0000 -16.9175 -28.7746 -20.9639 1.3444 7.3410 20.7296 0.9508 -3.8227 -17.5413 1.0974 -6.6567 -18.7022 0.0000 0.0000 0.0000 40.8266 5.0529 12.9813 -1.8230 -8.4873 24.2042 -0.3284 -2.1982 -11.8574 -1.2018 -6.9555 19.5837 -0.2585 -1.1836 12.8857 5.5400 1.1814 -13.5801 6.0246 1.9904 -23.5542 -3.5588 -8.9462 -8.9532 -4.6104 -2.4109 47.5441 -1.0343 0.8743 20.3291 -0.0000 0.0000 0.0000 -86.7292 32.2520 7.9537 15.8926 -25.3749 -3.5998 -0.0000 -0.0000 8.2193 22.4543 23.0678 9.1982 -7.1250 0.0000 -0.0000 -7.0658 54.5820 -1.6696 -0.0000 0.0000 0.0000 62.4043 -32.5199 48.8060 -18.3569 28.6118 -4.7189 0.0000 -0.0000 -10.6912 -25.4165 -17.2019 7.9995 7.1250 -0.0000 -0.0000 2.4516 -48.8841 -0.2350
0.00 0.00 0.00 -178.7700 2.6920 -176.0060 0.0000 0.0000 0.0000 -26.2119 -23.6562 -11.0381 0.8913 6.0176 16.8354 0.6223 -10.3463 -14.8113 0.3280 -3.6809 -10.1807 0.0000 0.0000 0.0000 34.2908 5.6021 5.0444 -5.5170 -13.9434 43.0111 1.0855 -18.2085 -9.3128 -3.4111 -11.3325 33.4097 -2.5836 -0.7480 14.9222 4.0847 0.4325 -12.9847 5.9781 1.6988 -23.9951 -4.1961 -9.1213 -8.5547 -3.9960 -3.4010 46.7644 -0.8317 0.2555 19.6755 0.0000 -0.0000 0.0000 -84.8721 30.3534 13.5690 18.3270 -28.5739 -4.7046 -0.0000 -0.0000 4.4095 31.9421 25.0899 14.8087 -7.1250 0.0000 -0.0000 2.7257 58.8474 0.9230 0.0000 -0.0000 0.0000 63.2632 -32.7885 46.9300 -17.3825 27.3592 -4.2616 0.0000 -0.0000 -8.6237 -23.7344 -17.4158 7.4970 7.1250 -0.0000 -0.0000 4.1316 -48.8506 -0.3930
0.00 0.00 0.00 -181.3180 6.3662 -174.2610 0.0000 0.0000 0.0000 -31.5234 -20.6979 -3.8655 0.5208 4.6253 12.8428 0.1374 -18.3865 -14.1378 0.2307 -3.0914 -8.5333 0.0000 0.0000 0.0000 25.1769 -0.1859 -21.8722 -6.8664 -15.2183 48.3672 -0.4444 -8.8960 -18.8337 -0.3590 3.8494 -10.6533 -3.5306 -0.8777 15.9054 2.8418 -0.5196 -12.9023 5.4314 1.2268 -24.3939 -4.3247 -9.2653 -9.0459 -2.5002 -5.2637 45.8484 -0.5259 -0.6789 19.2228 -0.0000 0.0000 0.0000 -81.0367 24.6853 17.3716 20.1669 -30.8429 -5.6167 -0.0000 -0.0000 5.9027 25.2359 22.3154 10.1466 -7.1250 0.0000 -0.0000 -3.9086 54.3437 -0.8985 -0.0000 0.0000 0.0000 65.1890 -31.6012 42.5581 -19.8594 30.4726 -5.4599 0.0000 -0.0000 -11.2236 -25.4214 -16.1224 7.5187 7.1250 -0.0000 -0.0000 2.2433 -47.7141 -0.1503
0.00 0.00 0.00 -182.5990 9.3219 -173.4300 0.0000 0.0000 0.0000 -33.9020 -19.0110 -0.2197 0.2948 3.4915 9.6503 -0.0782 -22.0068 -14.9115 0.2388 -3.1448 -8.6822 0.0000 0.0000 0.0000 24.2334 2.1449 -27.9006 -3.2595 -11.1038 32.6306 -0.8569 -9.7233 -23.5701 -2.2178 9.3058 -26.7566 -3.9095 -0.7800 16.1218 2.1612 -0.6881 -13.0289 4.9139 1.1268 -24.6969 -4.6584 -9.4841 -9.1378 -1.5511 -6.4780 45.2156 -0.2832 -1.2855 18.9114 -0.0000 -0.0000 0.0000 -79.5383 22.6763 20.0354 20.8088 -31.6045 -5.9494 -0.0000 -0.0000 6.5968 27.2590 22.3366 11.0791 -7.1250 0.0000 -0.0000 -1.7763 54.7778 -0.4267 -0.0000 -0.0000 0.0000 66.4331 -32.1306 41.3578 -21.2761 32.1492 -6.1962 0.0000 -0.0000 -11.9658 -24.3997 -15.8413 7.0587 7.1250 -0.0000 -0.0000 3.1686 -47.2606 -0.1769
0.00 0.00 0.00 -184.3550 12.7578 -172.8780 0.0000 0.0000 0.0000 -36.8316 -17.2421 2.4991 0.2138 2.9767 8.2138 -1.1450 -27.5757 -11.8490 0.4372 -4.2431 -11.7616 0.0000 0.0000 0.0000 23.6268 6.8600 -25.3351 -0.3241 -3.6592 10.1199 -2.1225 -13.5981 -35.1423 -0.5586 4.7873 -13.3029 -4.1251 -0.8169 15.7564 1.0643 -1.0268 -13.2772 3.8458 0.8765 -24.7500 -5.0306 -9.7633 -9.4287 -0.9664 -7.6180 44.6610 -0.2123 -1.9175 18.7202 -0.0000 -0.0000 0.0000 -77.8937 22.0731 23.1148 21.8504 -32.8076 -6.5046 -0.0000 -0.0000 5.4021 26.0572 20.7511 9.8287 -7.1250 0.0000 -0.0000 -2.6131 52.8291 -0.5037 -0.0000 -0.0000 0.0000 68.2335 -33.4974 40.8405 -21.9060 32.8707 -6.5348 0.0000 -0.0000 -11.9142 -25.9048 -16.3604 7.7900 7.1250 -0.0000 -0.0000 1.8202 -48.0458 -0.1368
0.00 0.00 0.00 -184.6200 14.7190 -172.6230 0.0000 0.0000 0.0000 -36.8594 -14.6390 2.2130 0.2486 3.2084 8.8596 -1.1696 -27.7303 -11.8332 0.2851 -3.4338 -9.4891 0.0000 0.0000 0.0000 23.5225 12.8082 -21.6248 -0.0039 -0.4011 1.1021 -5.8063 -10.7817 -49.7192 -0.1641 -2.6095 7.1934 -3.9669 -0.8020 15.3826 0.7833 -1.0024 -13.3453 3.4029 0.8142 -24.5891 -5.1067 -9.7654 -9.6032 -0.8204 -7.9464 44.2635 -0.2244 -2.1473 18.5367 -0.0000 -0.0000 0.0000 -77.6171 22.0074 23.8416 22.2565 -33.2656 -6.7260 -0.0000 -0.0000 5.0400 28.2894 22.2557 11.5213 -7.1250 0.0000 -0.0000 -0.6524 54.9044 -0.1587 -0.0000 -0.0000 0.0000 69.4181 -33.8988 39.7434 -21.5979 32.5196 -6.3683 0.0000 -0.0000 -11.7920 -28.2326 -17.8490 9.3456 7.1250 -0.0000 -0.0000 -0.2093 -50.0565 0.0261
0.00 0.00 0.00 -184.5580 31.1091 -173.3170 0.0000 0.0000 0.0000 -33.3294 6.5715 -4.6227 1.8517 8.5502 24.3981 -1.5587 -23.6783 -1.9180 0.2860 -3.4391 -9.5038 0.0000 0.0000 0.0000 33.0056 6.0447 -20.7921 -0.0983 -2.0224 5.5675 -1.8287 -16.7127 -36.0886 -1.4961 -7.7266 21.8866 3.0507 -0.3402 14.7437 -1.1637 1.0629 -13.4762 -3.6893 0.0962 -24.3815 -5.9401 -9.5012 -10.8431 0.2240 -9.0114 42.9456 0.0255 -3.0396 18.2355 -0.0000 -0.0000 0.0000 -76.9723 26.3445 28.9546 20.6877 -31.4620 -5.8861 -0.0000 -0.0000 2.1133 26.7095 20.4675 9.9786 -7.1250 0.0000 -0.0000 -1.8702 52.6464 -0.3520 -0.0000 -0.0000 0.0000 76.3998 -35.2248 31.9913 -18.9556 29.3635 -5.0091 0.0000 -0.0000 -11.1299 -23.5103 -17.5007 7.4531 7.1250 -0.0000 -0.0000 4.3679 -48.9062 -0.4215
0.00 0.00 0.00 -185.2980 42.7282 -174.6400 0.0000 0.0000 0.0000 -27.5499 12.3067 -13.2438 5.5623 13.9904 43.1989 0.2161 -1.2911 -8.4219 0.4737 -4.4139 -12.2442 0.0000 0.0000 0.0000 35.0875 6.6683 -12.6114 -0.0409 -1.3060 3.5912 -0.9763 -15.2690 -29.6661 -0.2754 -3.3752 9.3252 4.1156 0.5441 15.3620 -2.4365 2.2334 -13.2934 -6.2347 0.1619 -24.3676 -5.9019 -9.8274 -9.9749 2.4959 -10.7237 43.5571 0.7835 -3.4542 18.6869 0.0000 0.0000 0.0000 -73.1001 27.7549 37.0907 19.4506 -29.9747 -5.2541 -0.0000 -0.0000 4.3404 25.4747 20.1042 9.3004 -7.1250 0.0000 -0.0000 -3.0441 52.0248 -0.5269 0.0000 0.0000 0.0000 79.6224 -35.7458 31.7184 -20.5650 31.3170 -5.8222 0.0000 -0.0000 -10.5489 -24.9317 -17.3468 7.8909 7.1250 -0.0000 -0.0000 2.9533 -48.9641 -0.2890
0.00 0.00 0.00 -181.8490 65.9995 -171.2180 0.0000 0.0000 0.0000 -20.4675 -12.2731 -26.6015 7.8671 16.0207 52.0827 -0.4833 -21.3921 -11.0020 2.9625 -10.6341 -31.0555 0.0000 0.0000 0.0000 39.2783 13.3728 0.5334 -0.0007 0.1737 -0.4772 -0.6697 -10.2528 -22.3904 -0.0230 -0.9785 2.6897 7.4627 2.8614 16.5939 -3.7942 6.1164 -13.4453 -11.2486 0.8999 -24.3376 -3.2817 -9.5110 -9.8886 3.8290 -12.0778 43.8616 0.6690 -3.5612 18.8270 -0.0000 0.0000 0.0000 -66.5798 27.7997 36.1331 18.9240 -29.3241 -4.9936 -0.0000 -0.0000 3.5067 28.5683 23.0766 12.0475 -7.1250 0.0000 -0.0000 -0.5658 55.8577 -0.1507 -0.0000 0.0000 0.0000 83.7465 -32.8012 30.6069 -20.5992 31.3574 -5.8399 0.0000 -0.0000 -8.4529 -27.6038 -15.5308 7.9697 7.1250 -0.0000 -0.0000 0.0502 -47.3911 -0.0030
0.00 0.00 0.00 -177.0080 74.8230 -166.3440 0.0000 0.0000 0.0000 -16.5581 -21.8827 -30.7847 3.6486 11.6775 34.6006 0.7828 -18.3505 -19.1057 1.9119 -8.6800 -24.7994 0.0000 0.0000 0.0000 40.1800 14.2377 6.2337 -0.0346 1.2011 -3.3024 -0.5892 -9.3278 -20.7594 -0.5826 4.8875 -13.5880 9.8654 3.6079 18.1269 -4.2119 7.9245 -13.6207 -13.9768 1.0328 -24.8094 -2.2231 -9.1023 -9.9746 3.5970 -11.8319 43.9770 0.3994 -3.3925 18.7711 0.0000 0.0000 0.0000 -64.6815 27.9710 36.5206 18.8657 -29.2514 -4.9650 -0.0000 -0.0000 3.1327 26.3980 26.1006 12.3185 -7.1250 0.0000 -0.0000 -3.9782 58.6116 -1.3254 0.0000 0.0000 0.0000 85.5280 -32.2866 29.2627 -21.1079 31.9541 -6.1070 0.0000 -0.0000 -7.2283 -24.8741 -17.2772 7.8402 7.1250 -0.0000 -0.0000 2.9949 -48.8801 -0.2868
0.00 0.00 0.00 -168.4270 79.0178 -157.4990 0.0000 0.0000 0.0000 -10.2958 -32.0006 -31.4727 0.6222 5.0479 14.0452 2.2569 -5.5688 -27.2308 5.1918 -13.5966 -41.6449 0.0000 0.0000 0.0000 41.0544 12.9467 9.6038 -0.0667 1.6658 -4.5830 -0.6410 -6.6749 -19.0059 -0.6550 5.1767 -14.4132 12.2404 3.5563 18.5691 -4.4504 8.6614 -13.9889 -16.0261 0.7882 -25.0566 -1.8391 -8.8711 -9.4943 3.6218 -11.6460 44.2404 0.3969 -3.2796 18.7652 -0.0000 0.0000 0.0000 -62.9397 27.9024 38.3023 18.5488 -28.8542 -4.8112 -0.0000 -0.0000 3.0153 27.7405 23.4593 11.8249 -7.1250 0.0000 -0.0000 -1.5771 56.0927 -0.4292 -0.0000 0.0000 0.0000 86.3811 -33.3347 29.6738 -22.0805 33.0679 -6.6297 0.0000 -0.0000 -7.1788 -24.4714 -17.0252 7.5903 7.1250 -0.0000 -0.0000 3.3336 -48.5460 -0.2919
0.00 0.00 0.00 -121.5000 85.3197 -111.3490 0.0000 0.0000 0.0000 -16.0469 -24.9135 -29.8255 1.2232 7.0149 19.7596 1.2218 0.3089 -21.0159 4.5379 -12.8437 -38.7861 0.0000 0.0000 0.0000 39.9635 5.5664 15.0429 -0.4559 -4.3314 12.0111 -0.0301 -6.0204 -9.3703 -0.6614 5.2013 -14.4836 10.6830 4.1438 17.0230 -5.2350 8.8249 -14.9543 -16.1441 0.9639 -25.4485 0.0538 -9.6727 -8.4351 4.3969 -13.8708 46.0815 0.1333 -3.6213 19.7581 0.0000 0.0000 0.0000 -60.9455 26.2283 41.3688 17.8462 -27.9597 -4.4769 -0.0000 -0.0000 2.6718 28.4432 24.1922 12.5154 -7.1250 0.0000 -0.0000 -1.0221 57.0406 -0.3016 0.0000 0.0000 0.0000 91.4579 -37.6668 22.2911 -19.0016 29.4206 -5.0316 0.0000 -0.0000 -2.9118 -25.1481 -16.7413 7.7012 7.1250 -0.0000 -0.0000 2.6221 -48.3437 -0.2164
